# xmcd CD database file
#
# Track frame offsets:
#	150
#	19525
#	44000
#	60532
#	89435
#	104004
#	128127
#	145742
#	168515
#	184932
#	203937
#
# Disc length: 3136 seconds
#
# Revision: 0
# Processed by: cddbd v1.5.1PL0 Copyright (c) Steve Scherf et al.
# Submitted via: CDex 1.51
#
DISCID=9e0c3e0b
DTITLE=Fat John and the Three Slims - Harmonica Frenzy
DYEAR=1997
DGENRE=Blues
TTITLE0=You Know It Ain't Right
TTITLE1=Shame Shame Shame
TTITLE2=Two-Headed Woman
TTITLE3=Hoodoo Man Blues
TTITLE4=Yes, My Darling
TTITLE5=\I wish You Would
TTITLE6=You're So Fine
TTITLE7=Scratch My Back
TTITLE8=Too Late
TTITLE9=Sloppy Drunk
TTITLE10=Blue and Lonesome
EXTD=YEAR: 1997
EXTT0=
EXTT1=
EXTT2=
EXTT3=
EXTT4=
EXTT5=
EXTT6=
EXTT7=
EXTT8=
EXTT9=
EXTT10=
PLAYORDER=
